<svg xmlns="http://www.w3.org/2000/svg" xmlns:xlink="http://www.w3.org/1999/xlink" width="500" zoomAndPan="magnify" viewBox="0 0 375 374.999991" height="500" preserveAspectRatio="xMidYMid meet" version="1.0"><defs><g/></defs><g fill="#ffffff" fill-opacity="1"><g transform="translate(112.833131, 261.498446)"><g><path d="M 4.765625 -126.824219 C 4.765625 -91.875 31.242188 -78.898438 67.515625 -68.308594 C 112.261719 -55.070312 137.414062 -33.890625 124.96875 -22.769531 C 102.730469 -3.175781 88.960938 -65.398438 49.511719 -65.398438 C 10.324219 -65.398438 2.117188 -28.859375 6.089844 0.265625 L 11.914062 0.265625 C 11.914062 -11.386719 14.5625 -18.796875 27.800781 -18.796875 C 41.039062 -18.796875 58.25 1.851562 84.460938 1.851562 C 118.613281 1.851562 144.5625 -24.359375 144.5625 -54.011719 C 144.5625 -90.8125 98.226562 -106.699219 75.988281 -113.054688 C 31.242188 -125.5 10.589844 -145.886719 23.300781 -156.476562 C 46.597656 -175.804688 55.601562 -114.113281 95.050781 -114.113281 C 134.5 -114.113281 142.445312 -150.652344 138.738281 -179.777344 L 132.648438 -179.777344 C 132.648438 -168.125 130 -160.710938 116.761719 -160.710938 C 103.789062 -160.710938 90.019531 -181.097656 63.808594 -181.097656 C 30.183594 -181.097656 4.765625 -155.945312 4.765625 -126.824219 Z M 4.765625 -126.824219 "/></g></g></g></svg>